<svg width="1024" height="753" viewBox="0 0 1024 753" fill="none" xmlns="http://www.w3.org/2000/svg">
<g opacity="0.2" filter="url(#filter0_f_175_198)">
<ellipse cx="512" cy="282.476" rx="512" ry="282.476" fill="#35875D"/>
</g>
<path d="M145.876 472.945C147.018 472.945 147.882 473.454 148.469 474.472C149.067 475.478 149.366 476.943 149.366 478.866C149.366 480.789 149.067 482.26 148.469 483.277C147.882 484.295 147.018 484.804 145.876 484.804C144.745 484.804 143.88 484.295 143.283 483.277C142.685 482.26 142.386 480.789 142.386 478.866C142.386 476.954 142.685 475.489 143.283 474.472C143.88 473.454 144.745 472.945 145.876 472.945ZM143.523 478.866C143.523 480.23 143.64 481.298 143.875 482.07L147.429 474.639C147.055 474.114 146.538 473.851 145.876 473.851C145.14 473.851 144.563 474.265 144.147 475.092C143.731 475.908 143.523 477.166 143.523 478.866ZM145.876 483.881C146.623 483.881 147.205 483.473 147.621 482.657C148.037 481.829 148.245 480.566 148.245 478.866C148.245 477.424 148.112 476.305 147.845 475.512L144.291 483.009C144.676 483.59 145.204 483.881 145.876 483.881Z" fill="url(#paint0_linear_175_198)" fill-opacity="0.6"/>
<path d="M146.836 502.916H149.19V503.805H143.091V502.916H145.812V493.49L143.219 495.116L142.771 494.362L145.972 492.282H146.836V502.916Z" fill="url(#paint1_linear_175_198)" fill-opacity="0.6"/>
<path d="M145.876 511.283C147.018 511.283 147.882 511.792 148.469 512.809C149.067 513.816 149.366 515.281 149.366 517.204C149.366 519.127 149.067 520.598 148.469 521.615C147.882 522.633 147.018 523.141 145.876 523.141C144.745 523.141 143.88 522.633 143.283 521.615C142.685 520.598 142.386 519.127 142.386 517.204C142.386 515.292 142.685 513.827 143.283 512.809C143.88 511.792 144.745 511.283 145.876 511.283ZM143.523 517.204C143.523 518.568 143.64 519.636 143.875 520.407L147.429 512.977C147.055 512.452 146.538 512.189 145.876 512.189C145.14 512.189 144.563 512.602 144.147 513.43C143.731 514.246 143.523 515.504 143.523 517.204ZM145.876 522.219C146.623 522.219 147.205 521.811 147.621 520.994C148.037 520.167 148.245 518.903 148.245 517.204C148.245 515.761 148.112 514.643 147.845 513.849L144.291 521.347C144.676 521.928 145.204 522.219 145.876 522.219Z" fill="url(#paint2_linear_175_198)" fill-opacity="0.6"/>
<path d="M146.836 541.254H149.19V542.143H143.091V541.254H145.812V531.827L143.219 533.454L142.771 532.699L145.972 530.62H146.836V541.254Z" fill="url(#paint3_linear_175_198)" fill-opacity="0.6"/>
<path d="M146.836 560.422H149.19V561.311H143.091V560.422H145.812V550.996L143.219 552.623L142.771 551.868L145.972 549.788H146.836V560.422Z" fill="url(#paint4_linear_175_198)" fill-opacity="0.6"/>
<path d="M145.876 568.79C147.018 568.79 147.882 569.298 148.469 570.316C149.067 571.322 149.366 572.787 149.366 574.71C149.366 576.634 149.067 578.104 148.469 579.122C147.882 580.139 147.018 580.648 145.876 580.648C144.745 580.648 143.88 580.139 143.283 579.122C142.685 578.104 142.386 576.634 142.386 574.71C142.386 572.798 142.685 571.333 143.283 570.316C143.88 569.298 144.745 568.79 145.876 568.79ZM143.523 574.71C143.523 576.075 143.64 577.142 143.875 577.914L147.429 570.484C147.055 569.958 146.538 569.695 145.876 569.695C145.14 569.695 144.563 570.109 144.147 570.937C143.731 571.753 143.523 573.011 143.523 574.71ZM145.876 579.725C146.623 579.725 147.205 579.317 147.621 578.501C148.037 577.674 148.245 576.41 148.245 574.71C148.245 573.268 148.112 572.15 147.845 571.356L144.291 578.853C144.676 579.435 145.204 579.725 145.876 579.725Z" fill="url(#paint5_linear_175_198)" fill-opacity="0.6"/>
<path d="M146.836 598.76H149.19V599.649H143.091V598.76H145.812V589.334L143.219 590.961L142.771 590.206L145.972 588.126H146.836V598.76Z" fill="url(#paint6_linear_175_198)" fill-opacity="0.6"/>
<path d="M145.876 607.127C147.018 607.127 147.882 607.636 148.469 608.654C149.067 609.66 149.366 611.125 149.366 613.048C149.366 614.971 149.067 616.442 148.469 617.459C147.882 618.477 147.018 618.986 145.876 618.986C144.745 618.986 143.88 618.477 143.283 617.459C142.685 616.442 142.386 614.971 142.386 613.048C142.386 611.136 142.685 609.671 143.283 608.654C143.88 607.636 144.745 607.127 145.876 607.127ZM143.523 613.048C143.523 614.412 143.64 615.48 143.875 616.252L147.429 608.821C147.055 608.296 146.538 608.033 145.876 608.033C145.14 608.033 144.563 608.447 144.147 609.274C143.731 610.091 143.523 611.348 143.523 613.048ZM145.876 618.063C146.623 618.063 147.205 617.655 147.621 616.839C148.037 616.011 148.245 614.748 148.245 613.048C148.245 611.606 148.112 610.487 147.845 609.694L144.291 617.191C144.676 617.772 145.204 618.063 145.876 618.063Z" fill="url(#paint7_linear_175_198)" fill-opacity="0.6"/>
<path d="M145.876 626.296C147.018 626.296 147.882 626.805 148.469 627.823C149.067 628.829 149.366 630.294 149.366 632.217C149.366 634.14 149.067 635.611 148.469 636.628C147.882 637.646 147.018 638.155 145.876 638.155C144.745 638.155 143.88 637.646 143.283 636.628C142.685 635.611 142.386 634.14 142.386 632.217C142.386 630.305 142.685 628.84 143.283 627.823C143.88 626.805 144.745 626.296 145.876 626.296ZM143.523 632.217C143.523 633.581 143.64 634.649 143.875 635.421L147.429 627.99C147.055 627.465 146.538 627.202 145.876 627.202C145.14 627.202 144.563 627.616 144.147 628.443C143.731 629.259 143.523 630.517 143.523 632.217ZM145.876 637.232C146.623 637.232 147.205 636.824 147.621 636.008C148.037 635.18 148.245 633.917 148.245 632.217C148.245 630.775 148.112 629.656 147.845 628.862L144.291 636.36C144.676 636.941 145.204 637.232 145.876 637.232Z" fill="url(#paint8_linear_175_198)" fill-opacity="0.6"/>
<path d="M146.836 656.267H149.19V657.156H143.091V656.267H145.812V646.84L143.219 648.467L142.771 647.713L145.972 645.633H146.836V656.267Z" fill="url(#paint9_linear_175_198)" fill-opacity="0.6"/>
<path d="M145.876 664.634C147.018 664.634 147.882 665.143 148.469 666.16C149.067 667.167 149.366 668.631 149.366 670.555C149.366 672.478 149.067 673.948 148.469 674.966C147.882 675.983 147.018 676.492 145.876 676.492C144.745 676.492 143.88 675.983 143.283 674.966C142.685 673.948 142.386 672.478 142.386 670.555C142.386 668.643 142.685 667.178 143.283 666.16C143.88 665.143 144.745 664.634 145.876 664.634ZM143.523 670.555C143.523 671.919 143.64 672.987 143.875 673.758L147.429 666.328C147.055 665.802 146.538 665.54 145.876 665.54C145.14 665.54 144.563 665.953 144.147 666.781C143.731 667.597 143.523 668.855 143.523 670.555ZM145.876 675.57C146.623 675.57 147.205 675.162 147.621 674.345C148.037 673.518 148.245 672.254 148.245 670.555C148.245 669.112 148.112 667.994 147.845 667.2L144.291 674.698C144.676 675.279 145.204 675.57 145.876 675.57Z" fill="url(#paint10_linear_175_198)" fill-opacity="0.6"/>
<path d="M146.836 694.604H149.19V695.493H143.091V694.604H145.812V685.178L143.219 686.805L142.771 686.05L145.972 683.97H146.836V694.604Z" fill="url(#paint11_linear_175_198)" fill-opacity="0.6"/>
<path d="M146.836 713.773H149.19V714.662H143.091V713.773H145.812V704.347L143.219 705.974L142.771 705.219L145.972 703.139H146.836V713.773Z" fill="url(#paint12_linear_175_198)" fill-opacity="0.6"/>
<path d="M175.603 511.283C176.745 511.283 177.61 511.792 178.197 512.809C178.794 513.816 179.093 515.281 179.093 517.204C179.093 519.127 178.794 520.598 178.197 521.615C177.61 522.633 176.745 523.141 175.603 523.141C174.472 523.141 173.608 522.633 173.01 521.615C172.413 520.598 172.114 519.127 172.114 517.204C172.114 515.292 172.413 513.827 173.01 512.809C173.608 511.792 174.472 511.283 175.603 511.283ZM173.25 517.204C173.25 518.568 173.368 519.636 173.603 520.407L177.156 512.977C176.783 512.452 176.265 512.189 175.603 512.189C174.867 512.189 174.291 512.602 173.875 513.43C173.459 514.246 173.25 515.504 173.25 517.204ZM175.603 522.219C176.35 522.219 176.932 521.811 177.348 520.994C177.764 520.167 177.973 518.903 177.973 517.204C177.973 515.761 177.839 514.643 177.572 513.849L174.019 521.347C174.403 521.928 174.931 522.219 175.603 522.219Z" fill="url(#paint13_linear_175_198)" fill-opacity="0.6"/>
<path d="M176.564 541.254H178.917V542.143H172.818V541.254H175.539V531.827L172.946 533.454L172.498 532.699L175.7 530.62H176.564V541.254Z" fill="url(#paint14_linear_175_198)" fill-opacity="0.6"/>
<path d="M175.603 549.621C176.745 549.621 177.61 550.13 178.197 551.147C178.794 552.153 179.093 553.618 179.093 555.542C179.093 557.465 178.794 558.935 178.197 559.953C177.61 560.97 176.745 561.479 175.603 561.479C174.472 561.479 173.608 560.97 173.01 559.953C172.413 558.935 172.114 557.465 172.114 555.542C172.114 553.629 172.413 552.165 173.01 551.147C173.608 550.13 174.472 549.621 175.603 549.621ZM173.25 555.542C173.25 556.906 173.368 557.974 173.603 558.745L177.156 551.315C176.783 550.789 176.265 550.526 175.603 550.526C174.867 550.526 174.291 550.94 173.875 551.768C173.459 552.584 173.25 553.842 173.25 555.542ZM175.603 560.557C176.35 560.557 176.932 560.148 177.348 559.332C177.764 558.505 177.973 557.241 177.973 555.542C177.973 554.099 177.839 552.981 177.572 552.187L174.019 559.684C174.403 560.266 174.931 560.557 175.603 560.557Z" fill="url(#paint15_linear_175_198)" fill-opacity="0.6"/>
<path d="M175.603 568.79C176.745 568.79 177.61 569.298 178.197 570.316C178.794 571.322 179.093 572.787 179.093 574.71C179.093 576.634 178.794 578.104 178.197 579.122C177.61 580.139 176.745 580.648 175.603 580.648C174.472 580.648 173.608 580.139 173.01 579.122C172.413 578.104 172.114 576.634 172.114 574.71C172.114 572.798 172.413 571.333 173.01 570.316C173.608 569.298 174.472 568.79 175.603 568.79ZM173.25 574.71C173.25 576.075 173.368 577.142 173.603 577.914L177.156 570.484C176.783 569.958 176.265 569.695 175.603 569.695C174.867 569.695 174.291 570.109 173.875 570.937C173.459 571.753 173.25 573.011 173.25 574.71ZM175.603 579.725C176.35 579.725 176.932 579.317 177.348 578.501C177.764 577.674 177.973 576.41 177.973 574.71C177.973 573.268 177.839 572.15 177.572 571.356L174.019 578.853C174.403 579.435 174.931 579.725 175.603 579.725Z" fill="url(#paint16_linear_175_198)" fill-opacity="0.6"/>
<path d="M176.564 598.76H178.917V599.649H172.818V598.76H175.539V589.334L172.946 590.961L172.498 590.206L175.7 588.126H176.564V598.76Z" fill="url(#paint17_linear_175_198)" fill-opacity="0.6"/>
<path d="M175.603 607.127C176.745 607.127 177.61 607.636 178.197 608.654C178.794 609.66 179.093 611.125 179.093 613.048C179.093 614.971 178.794 616.442 178.197 617.459C177.61 618.477 176.745 618.986 175.603 618.986C174.472 618.986 173.608 618.477 173.01 617.459C172.413 616.442 172.114 614.971 172.114 613.048C172.114 611.136 172.413 609.671 173.01 608.654C173.608 607.636 174.472 607.127 175.603 607.127ZM173.25 613.048C173.25 614.412 173.368 615.48 173.603 616.252L177.156 608.821C176.783 608.296 176.265 608.033 175.603 608.033C174.867 608.033 174.291 608.447 173.875 609.274C173.459 610.091 173.25 611.348 173.25 613.048ZM175.603 618.063C176.35 618.063 176.932 617.655 177.348 616.839C177.764 616.011 177.973 614.748 177.973 613.048C177.973 611.606 177.839 610.487 177.572 609.694L174.019 617.191C174.403 617.772 174.931 618.063 175.603 618.063Z" fill="url(#paint18_linear_175_198)" fill-opacity="0.6"/>
<path d="M176.564 637.098H178.917V637.987H172.818V637.098H175.539V627.672L172.946 629.299L172.498 628.544L175.7 626.464H176.564V637.098Z" fill="url(#paint19_linear_175_198)" fill-opacity="0.6"/>
<path d="M175.603 645.465C176.745 645.465 177.61 645.974 178.197 646.991C178.794 647.998 179.093 649.463 179.093 651.386C179.093 653.309 178.794 654.78 178.197 655.797C177.61 656.815 176.745 657.323 175.603 657.323C174.472 657.323 173.608 656.815 173.01 655.797C172.413 654.78 172.114 653.309 172.114 651.386C172.114 649.474 172.413 648.009 173.01 646.991C173.608 645.974 174.472 645.465 175.603 645.465ZM173.25 651.386C173.25 652.75 173.368 653.818 173.603 654.589L177.156 647.159C176.783 646.634 176.265 646.371 175.603 646.371C174.867 646.371 174.291 646.785 173.875 647.612C173.459 648.428 173.25 649.686 173.25 651.386ZM175.603 656.401C176.35 656.401 176.932 655.993 177.348 655.176C177.764 654.349 177.973 653.085 177.973 651.386C177.973 649.943 177.839 648.825 177.572 648.031L174.019 655.529C174.403 656.11 174.931 656.401 175.603 656.401Z" fill="url(#paint20_linear_175_198)" fill-opacity="0.6"/>
<path d="M175.603 664.634C176.745 664.634 177.61 665.143 178.197 666.16C178.794 667.167 179.093 668.631 179.093 670.555C179.093 672.478 178.794 673.948 178.197 674.966C177.61 675.983 176.745 676.492 175.603 676.492C174.472 676.492 173.608 675.983 173.01 674.966C172.413 673.948 172.114 672.478 172.114 670.555C172.114 668.643 172.413 667.178 173.01 666.16C173.608 665.143 174.472 664.634 175.603 664.634ZM173.25 670.555C173.25 671.919 173.368 672.987 173.603 673.758L177.156 666.328C176.783 665.802 176.265 665.54 175.603 665.54C174.867 665.54 174.291 665.953 173.875 666.781C173.459 667.597 173.25 668.855 173.25 670.555ZM175.603 675.57C176.35 675.57 176.932 675.162 177.348 674.345C177.764 673.518 177.973 672.254 177.973 670.555C177.973 669.112 177.839 667.994 177.572 667.2L174.019 674.698C174.403 675.279 174.931 675.57 175.603 675.57Z" fill="url(#paint21_linear_175_198)" fill-opacity="0.6"/>
<path d="M176.564 694.604H178.917V695.493H172.818V694.604H175.539V685.178L172.946 686.805L172.498 686.05L175.7 683.97H176.564V694.604Z" fill="url(#paint22_linear_175_198)" fill-opacity="0.6"/>
<path d="M175.603 702.972C176.745 702.972 177.61 703.48 178.197 704.498C178.794 705.504 179.093 706.969 179.093 708.892C179.093 710.816 178.794 712.286 178.197 713.304C177.61 714.321 176.745 714.83 175.603 714.83C174.472 714.83 173.608 714.321 173.01 713.304C172.413 712.286 172.114 710.816 172.114 708.892C172.114 706.98 172.413 705.515 173.01 704.498C173.608 703.48 174.472 702.972 175.603 702.972ZM173.25 708.892C173.25 710.257 173.368 711.324 173.603 712.096L177.156 704.666C176.783 704.14 176.265 703.877 175.603 703.877C174.867 703.877 174.291 704.291 173.875 705.119C173.459 705.935 173.25 707.193 173.25 708.892ZM175.603 713.907C176.35 713.907 176.932 713.499 177.348 712.683C177.764 711.856 177.973 710.592 177.973 708.892C177.973 707.45 177.839 706.332 177.572 705.538L174.019 713.035C174.403 713.617 174.931 713.907 175.603 713.907Z" fill="url(#paint23_linear_175_198)" fill-opacity="0.6"/>
<path d="M176.564 732.942H178.917V733.831H172.818V732.942H175.539V723.516L172.946 725.143L172.498 724.388L175.7 722.308H176.564V732.942Z" fill="url(#paint24_linear_175_198)" fill-opacity="0.6"/>
<path d="M176.564 752.111H178.917V753H172.818V752.111H175.539V742.685L172.946 744.312L172.498 743.557L175.7 741.477H176.564V752.111Z" fill="url(#paint25_linear_175_198)" fill-opacity="0.6"/>
<path d="M131.012 530.452C132.154 530.452 133.019 530.961 133.605 531.978C134.203 532.985 134.502 534.449 134.502 536.373C134.502 538.296 134.203 539.766 133.605 540.784C133.019 541.801 132.154 542.31 131.012 542.31C129.881 542.31 129.017 541.801 128.419 540.784C127.822 539.766 127.523 538.296 127.523 536.373C127.523 534.461 127.822 532.996 128.419 531.978C129.017 530.961 129.881 530.452 131.012 530.452ZM128.659 536.373C128.659 537.737 128.777 538.805 129.011 539.576L132.565 532.146C132.192 531.62 131.674 531.358 131.012 531.358C130.276 531.358 129.7 531.771 129.284 532.599C128.867 533.415 128.659 534.673 128.659 536.373ZM131.012 541.388C131.759 541.388 132.341 540.98 132.757 540.163C133.173 539.336 133.381 538.072 133.381 536.373C133.381 534.93 133.248 533.812 132.981 533.018L129.428 540.516C129.812 541.097 130.34 541.388 131.012 541.388Z" fill="url(#paint26_linear_175_198)" fill-opacity="0.6"/>
<path d="M131.012 549.621C132.154 549.621 133.019 550.13 133.605 551.147C134.203 552.153 134.502 553.618 134.502 555.542C134.502 557.465 134.203 558.935 133.605 559.953C133.019 560.97 132.154 561.479 131.012 561.479C129.881 561.479 129.017 560.97 128.419 559.953C127.822 558.935 127.523 557.465 127.523 555.542C127.523 553.629 127.822 552.165 128.419 551.147C129.017 550.13 129.881 549.621 131.012 549.621ZM128.659 555.542C128.659 556.906 128.777 557.974 129.011 558.745L132.565 551.315C132.192 550.789 131.674 550.526 131.012 550.526C130.276 550.526 129.7 550.94 129.284 551.768C128.867 552.584 128.659 553.842 128.659 555.542ZM131.012 560.557C131.759 560.557 132.341 560.148 132.757 559.332C133.173 558.505 133.381 557.241 133.381 555.542C133.381 554.099 133.248 552.981 132.981 552.187L129.428 559.684C129.812 560.266 130.34 560.557 131.012 560.557Z" fill="url(#paint27_linear_175_198)" fill-opacity="0.6"/>
<path d="M131.973 579.591H134.326V580.48H128.227V579.591H130.948V570.165L128.355 571.792L127.907 571.037L131.108 568.957H131.973V579.591Z" fill="url(#paint28_linear_175_198)" fill-opacity="0.6"/>
<path d="M131.012 587.958C132.154 587.958 133.019 588.467 133.605 589.485C134.203 590.491 134.502 591.956 134.502 593.879C134.502 595.803 134.203 597.273 133.605 598.29C133.019 599.308 132.154 599.817 131.012 599.817C129.881 599.817 129.017 599.308 128.419 598.29C127.822 597.273 127.523 595.803 127.523 593.879C127.523 591.967 127.822 590.502 128.419 589.485C129.017 588.467 129.881 587.958 131.012 587.958ZM128.659 593.879C128.659 595.243 128.777 596.311 129.011 597.083L132.565 589.653C132.192 589.127 131.674 588.864 131.012 588.864C130.276 588.864 129.7 589.278 129.284 590.105C128.867 590.922 128.659 592.18 128.659 593.879ZM131.012 598.894C131.759 598.894 132.341 598.486 132.757 597.67C133.173 596.842 133.381 595.579 133.381 593.879C133.381 592.437 133.248 591.319 132.981 590.525L129.428 598.022C129.812 598.604 130.34 598.894 131.012 598.894Z" fill="url(#paint29_linear_175_198)" fill-opacity="0.6"/>
<path d="M131.973 617.929H134.326V618.818H128.227V617.929H130.948V608.503L128.355 610.13L127.907 609.375L131.108 607.295H131.973V617.929Z" fill="url(#paint30_linear_175_198)" fill-opacity="0.6"/>
<path d="M131.973 637.098H134.326V637.987H128.227V637.098H130.948V627.672L128.355 629.299L127.907 628.544L131.108 626.464H131.973V637.098Z" fill="url(#paint31_linear_175_198)" fill-opacity="0.6"/>
<path d="M161.7 502.916H164.053V503.805H157.955V502.916H160.676V493.49L158.083 495.116L157.634 494.362L160.836 492.282H161.7V502.916Z" fill="url(#paint32_linear_175_198)" fill-opacity="0.6"/>
<path d="M160.74 511.283C161.882 511.283 162.746 511.792 163.333 512.809C163.931 513.816 164.229 515.281 164.229 517.204C164.229 519.127 163.931 520.598 163.333 521.615C162.746 522.633 161.882 523.141 160.74 523.141C159.609 523.141 158.744 522.633 158.147 521.615C157.549 520.598 157.25 519.127 157.25 517.204C157.25 515.292 157.549 513.827 158.147 512.809C158.744 511.792 159.609 511.283 160.74 511.283ZM158.387 517.204C158.387 518.568 158.504 519.636 158.739 520.407L162.292 512.977C161.919 512.452 161.401 512.189 160.74 512.189C160.003 512.189 159.427 512.602 159.011 513.43C158.595 514.246 158.387 515.504 158.387 517.204ZM160.74 522.219C161.487 522.219 162.068 521.811 162.485 520.994C162.901 520.167 163.109 518.903 163.109 517.204C163.109 515.761 162.975 514.643 162.709 513.849L159.155 521.347C159.539 521.928 160.067 522.219 160.74 522.219Z" fill="url(#paint33_linear_175_198)" fill-opacity="0.6"/>
<path d="M161.7 541.254H164.053V542.143H157.955V541.254H160.676V531.827L158.083 533.454L157.634 532.699L160.836 530.62H161.7V541.254Z" fill="url(#paint34_linear_175_198)" fill-opacity="0.6"/>
<path d="M161.7 560.422H164.053V561.311H157.955V560.422H160.676V550.996L158.083 552.623L157.634 551.868L160.836 549.788H161.7V560.422Z" fill="url(#paint35_linear_175_198)" fill-opacity="0.6"/>
<path d="M160.74 568.79C161.882 568.79 162.746 569.298 163.333 570.316C163.931 571.322 164.229 572.787 164.229 574.71C164.229 576.634 163.931 578.104 163.333 579.122C162.746 580.139 161.882 580.648 160.74 580.648C159.609 580.648 158.744 580.139 158.147 579.122C157.549 578.104 157.25 576.634 157.25 574.71C157.25 572.798 157.549 571.333 158.147 570.316C158.744 569.298 159.609 568.79 160.74 568.79ZM158.387 574.71C158.387 576.075 158.504 577.142 158.739 577.914L162.292 570.484C161.919 569.958 161.401 569.695 160.74 569.695C160.003 569.695 159.427 570.109 159.011 570.937C158.595 571.753 158.387 573.011 158.387 574.71ZM160.74 579.725C161.487 579.725 162.068 579.317 162.485 578.501C162.901 577.674 163.109 576.41 163.109 574.71C163.109 573.268 162.975 572.15 162.709 571.356L159.155 578.853C159.539 579.435 160.067 579.725 160.74 579.725Z" fill="url(#paint36_linear_175_198)" fill-opacity="0.6"/>
<path d="M161.7 598.76H164.053V599.649H157.955V598.76H160.676V589.334L158.083 590.961L157.634 590.206L160.836 588.126H161.7V598.76Z" fill="url(#paint37_linear_175_198)" fill-opacity="0.6"/>
<path d="M161.7 617.929H164.053V618.818H157.955V617.929H160.676V608.503L158.083 610.13L157.634 609.375L160.836 607.295H161.7V617.929Z" fill="url(#paint38_linear_175_198)" fill-opacity="0.6"/>
<path d="M160.74 626.296C161.882 626.296 162.746 626.805 163.333 627.823C163.931 628.829 164.229 630.294 164.229 632.217C164.229 634.14 163.931 635.611 163.333 636.628C162.746 637.646 161.882 638.155 160.74 638.155C159.609 638.155 158.744 637.646 158.147 636.628C157.549 635.611 157.25 634.14 157.25 632.217C157.25 630.305 157.549 628.84 158.147 627.823C158.744 626.805 159.609 626.296 160.74 626.296ZM158.387 632.217C158.387 633.581 158.504 634.649 158.739 635.421L162.292 627.99C161.919 627.465 161.401 627.202 160.74 627.202C160.003 627.202 159.427 627.616 159.011 628.443C158.595 629.259 158.387 630.517 158.387 632.217ZM160.74 637.232C161.487 637.232 162.068 636.824 162.485 636.008C162.901 635.18 163.109 633.917 163.109 632.217C163.109 630.775 162.975 629.656 162.709 628.862L159.155 636.36C159.539 636.941 160.067 637.232 160.74 637.232Z" fill="url(#paint39_linear_175_198)" fill-opacity="0.6"/>
<path d="M161.7 656.267H164.053V657.156H157.955V656.267H160.676V646.84L158.083 648.467L157.634 647.713L160.836 645.633H161.7V656.267Z" fill="url(#paint40_linear_175_198)" fill-opacity="0.6"/>
<path d="M160.74 664.634C161.882 664.634 162.746 665.143 163.333 666.16C163.931 667.167 164.229 668.631 164.229 670.555C164.229 672.478 163.931 673.948 163.333 674.966C162.746 675.983 161.882 676.492 160.74 676.492C159.609 676.492 158.744 675.983 158.147 674.966C157.549 673.948 157.25 672.478 157.25 670.555C157.25 668.643 157.549 667.178 158.147 666.16C158.744 665.143 159.609 664.634 160.74 664.634ZM158.387 670.555C158.387 671.919 158.504 672.987 158.739 673.758L162.292 666.328C161.919 665.802 161.401 665.54 160.74 665.54C160.003 665.54 159.427 665.953 159.011 666.781C158.595 667.597 158.387 668.855 158.387 670.555ZM160.74 675.57C161.487 675.57 162.068 675.162 162.485 674.345C162.901 673.518 163.109 672.254 163.109 670.555C163.109 669.112 162.975 667.994 162.709 667.2L159.155 674.698C159.539 675.279 160.067 675.57 160.74 675.57Z" fill="url(#paint41_linear_175_198)" fill-opacity="0.6"/>
<path d="M190.467 492.114C191.609 492.114 192.473 492.623 193.06 493.64C193.658 494.647 193.957 496.112 193.957 498.035C193.957 499.958 193.658 501.429 193.06 502.446C192.473 503.464 191.609 503.973 190.467 503.973C189.336 503.973 188.472 503.464 187.874 502.446C187.276 501.429 186.978 499.958 186.978 498.035C186.978 496.123 187.276 494.658 187.874 493.64C188.472 492.623 189.336 492.114 190.467 492.114ZM188.114 498.035C188.114 499.399 188.232 500.467 188.466 501.239L192.02 493.808C191.646 493.283 191.129 493.02 190.467 493.02C189.731 493.02 189.155 493.434 188.738 494.261C188.322 495.077 188.114 496.335 188.114 498.035ZM190.467 503.05C191.214 503.05 191.796 502.642 192.212 501.826C192.628 500.998 192.836 499.735 192.836 498.035C192.836 496.592 192.703 495.474 192.436 494.68L188.883 502.178C189.267 502.759 189.795 503.05 190.467 503.05Z" fill="url(#paint42_linear_175_198)" fill-opacity="0.6"/>
<path d="M191.428 522.085H193.781V522.974H187.682V522.085H190.403V512.658L187.81 514.285L187.362 513.531L190.563 511.451H191.428V522.085Z" fill="url(#paint43_linear_175_198)" fill-opacity="0.6"/>
<path d="M191.428 541.254H193.781V542.143H187.682V541.254H190.403V531.827L187.81 533.454L187.362 532.699L190.563 530.62H191.428V541.254Z" fill="url(#paint44_linear_175_198)" fill-opacity="0.6"/>
<path d="M190.467 549.621C191.609 549.621 192.473 550.13 193.06 551.147C193.658 552.153 193.957 553.618 193.957 555.542C193.957 557.465 193.658 558.935 193.06 559.953C192.473 560.97 191.609 561.479 190.467 561.479C189.336 561.479 188.472 560.97 187.874 559.953C187.276 558.935 186.978 557.465 186.978 555.542C186.978 553.629 187.276 552.165 187.874 551.147C188.472 550.13 189.336 549.621 190.467 549.621ZM188.114 555.542C188.114 556.906 188.232 557.974 188.466 558.745L192.02 551.315C191.646 550.789 191.129 550.526 190.467 550.526C189.731 550.526 189.155 550.94 188.738 551.768C188.322 552.584 188.114 553.842 188.114 555.542ZM190.467 560.557C191.214 560.557 191.796 560.148 192.212 559.332C192.628 558.505 192.836 557.241 192.836 555.542C192.836 554.099 192.703 552.981 192.436 552.187L188.883 559.684C189.267 560.266 189.795 560.557 190.467 560.557Z" fill="url(#paint45_linear_175_198)" fill-opacity="0.6"/>
<path d="M190.467 568.79C191.609 568.79 192.473 569.298 193.06 570.316C193.658 571.322 193.957 572.787 193.957 574.71C193.957 576.634 193.658 578.104 193.06 579.122C192.473 580.139 191.609 580.648 190.467 580.648C189.336 580.648 188.472 580.139 187.874 579.122C187.276 578.104 186.978 576.634 186.978 574.71C186.978 572.798 187.276 571.333 187.874 570.316C188.472 569.298 189.336 568.79 190.467 568.79ZM188.114 574.71C188.114 576.075 188.232 577.142 188.466 577.914L192.02 570.484C191.646 569.958 191.129 569.695 190.467 569.695C189.731 569.695 189.155 570.109 188.738 570.937C188.322 571.753 188.114 573.011 188.114 574.71ZM190.467 579.725C191.214 579.725 191.796 579.317 192.212 578.501C192.628 577.674 192.836 576.41 192.836 574.71C192.836 573.268 192.703 572.15 192.436 571.356L188.883 578.853C189.267 579.435 189.795 579.725 190.467 579.725Z" fill="url(#paint46_linear_175_198)" fill-opacity="0.6"/>
<g opacity="0.6">
<path d="M823.117 230.823C824.206 230.823 825.031 231.311 825.591 232.288C826.161 233.254 826.446 234.659 826.446 236.505C826.446 238.351 826.161 239.762 825.591 240.738C825.031 241.715 824.206 242.203 823.117 242.203C822.038 242.203 821.213 241.715 820.643 240.738C820.073 239.762 819.788 238.351 819.788 236.505C819.788 234.67 820.073 233.264 820.643 232.288C821.213 231.311 822.038 230.823 823.117 230.823ZM820.872 236.505C820.872 237.814 820.984 238.839 821.208 239.579L824.598 232.449C824.242 231.944 823.748 231.692 823.117 231.692C822.415 231.692 821.865 232.089 821.468 232.883C821.071 233.667 820.872 234.874 820.872 236.505ZM823.117 241.318C823.83 241.318 824.385 240.926 824.782 240.143C825.179 239.349 825.377 238.136 825.377 236.505C825.377 235.121 825.25 234.048 824.995 233.286L821.605 240.481C821.972 241.039 822.476 241.318 823.117 241.318Z" fill="url(#paint47_linear_175_198)"/>
<path d="M824.033 259.584H826.278V260.438H820.46V259.584H823.056V250.538L820.582 252.1L820.155 251.375L823.209 249.38H824.033V259.584Z" fill="url(#paint48_linear_175_198)"/>
<path d="M823.117 267.614C824.206 267.614 825.031 268.102 825.591 269.079C826.161 270.045 826.446 271.45 826.446 273.296C826.446 275.142 826.161 276.553 825.591 277.529C825.031 278.506 824.206 278.994 823.117 278.994C822.038 278.994 821.213 278.506 820.643 277.529C820.073 276.553 819.788 275.142 819.788 273.296C819.788 271.461 820.073 270.055 820.643 269.079C821.213 268.102 822.038 267.614 823.117 267.614ZM820.872 273.296C820.872 274.605 820.984 275.63 821.208 276.37L824.598 269.24C824.242 268.735 823.748 268.483 823.117 268.483C822.415 268.483 821.865 268.88 821.468 269.674C821.071 270.458 820.872 271.665 820.872 273.296ZM823.117 278.109C823.83 278.109 824.385 277.717 824.782 276.934C825.179 276.14 825.377 274.927 825.377 273.296C825.377 271.912 825.25 270.839 824.995 270.077L821.605 277.272C821.972 277.83 822.476 278.109 823.117 278.109Z" fill="url(#paint49_linear_175_198)"/>
<path d="M824.033 296.375H826.278V297.228H820.46V296.375H823.056V287.329L820.582 288.891L820.155 288.166L823.209 286.171H824.033V296.375Z" fill="url(#paint50_linear_175_198)"/>
<path d="M824.033 314.771H826.278V315.624H820.46V314.771H823.056V305.725L820.582 307.286L820.155 306.562L823.209 304.566H824.033V314.771Z" fill="url(#paint51_linear_175_198)"/>
<path d="M823.117 322.801C824.206 322.801 825.031 323.289 825.591 324.265C826.161 325.231 826.446 326.637 826.446 328.482C826.446 330.328 826.161 331.739 825.591 332.716C825.031 333.692 824.206 334.18 823.117 334.18C822.038 334.18 821.213 333.692 820.643 332.716C820.073 331.739 819.788 330.328 819.788 328.482C819.788 326.647 820.073 325.242 820.643 324.265C821.213 323.289 822.038 322.801 823.117 322.801ZM820.872 328.482C820.872 329.792 820.984 330.816 821.208 331.557L824.598 324.426C824.242 323.922 823.748 323.67 823.117 323.67C822.415 323.67 821.865 324.067 821.468 324.861C821.071 325.644 820.872 326.851 820.872 328.482ZM823.117 333.295C823.83 333.295 824.385 332.903 824.782 332.12C825.179 331.326 825.377 330.113 825.377 328.482C825.377 327.098 825.25 326.025 824.995 325.263L821.605 332.458C821.972 333.016 822.476 333.295 823.117 333.295Z" fill="url(#paint52_linear_175_198)"/>
<path d="M824.033 351.562H826.278V352.415H820.46V351.562H823.056V342.516L820.582 344.077L820.155 343.353L823.209 341.357H824.033V351.562Z" fill="url(#paint53_linear_175_198)"/>
<path d="M823.117 359.591C824.206 359.591 825.031 360.08 825.591 361.056C826.161 362.022 826.446 363.428 826.446 365.273C826.446 367.119 826.161 368.53 825.591 369.507C825.031 370.483 824.206 370.971 823.117 370.971C822.038 370.971 821.213 370.483 820.643 369.507C820.073 368.53 819.788 367.119 819.788 365.273C819.788 363.438 820.073 362.033 820.643 361.056C821.213 360.08 822.038 359.591 823.117 359.591ZM820.872 365.273C820.872 366.583 820.984 367.607 821.208 368.348L824.598 361.217C824.242 360.713 823.748 360.461 823.117 360.461C822.415 360.461 821.865 360.858 821.468 361.652C821.071 362.435 820.872 363.642 820.872 365.273ZM823.117 370.086C823.83 370.086 824.385 369.694 824.782 368.911C825.179 368.117 825.377 366.904 825.377 365.273C825.377 363.889 825.25 362.816 824.995 362.054L821.605 369.249C821.972 369.807 822.476 370.086 823.117 370.086Z" fill="url(#paint54_linear_175_198)"/>
<path d="M823.117 377.987C824.206 377.987 825.031 378.475 825.591 379.452C826.161 380.417 826.446 381.823 826.446 383.669C826.446 385.515 826.161 386.926 825.591 387.902C825.031 388.879 824.206 389.367 823.117 389.367C822.038 389.367 821.213 388.879 820.643 387.902C820.073 386.926 819.788 385.515 819.788 383.669C819.788 381.834 820.073 380.428 820.643 379.452C821.213 378.475 822.038 377.987 823.117 377.987ZM820.872 383.669C820.872 384.978 820.984 386.003 821.208 386.743L824.598 379.613C824.242 379.108 823.748 378.856 823.117 378.856C822.415 378.856 821.865 379.253 821.468 380.047C821.071 380.831 820.872 382.038 820.872 383.669ZM823.117 388.482C823.83 388.482 824.385 388.09 824.782 387.307C825.179 386.512 825.377 385.3 825.377 383.669C825.377 382.285 825.25 381.212 824.995 380.45L821.605 387.645C821.972 388.203 822.476 388.482 823.117 388.482Z" fill="url(#paint55_linear_175_198)"/>
<path d="M824.033 406.748H826.278V407.601H820.46V406.748H823.056V397.702L820.582 399.264L820.155 398.539L823.209 396.543H824.033V406.748Z" fill="url(#paint56_linear_175_198)"/>
<path d="M823.117 414.778C824.206 414.778 825.031 415.266 825.591 416.243C826.161 417.208 826.446 418.614 826.446 420.46C826.446 422.305 826.161 423.717 825.591 424.693C825.031 425.67 824.206 426.158 823.117 426.158C822.038 426.158 821.213 425.67 820.643 424.693C820.073 423.717 819.788 422.305 819.788 420.46C819.788 418.625 820.073 417.219 820.643 416.243C821.213 415.266 822.038 414.778 823.117 414.778ZM820.872 420.46C820.872 421.769 820.984 422.794 821.208 423.534L824.598 416.404C824.242 415.899 823.748 415.647 823.117 415.647C822.415 415.647 821.865 416.044 821.468 416.838C821.071 417.622 820.872 418.829 820.872 420.46ZM823.117 425.273C823.83 425.273 824.385 424.881 824.782 424.098C825.179 423.303 825.377 422.091 825.377 420.46C825.377 419.076 825.25 418.002 824.995 417.241L821.605 424.436C821.972 424.994 822.476 425.273 823.117 425.273Z" fill="url(#paint57_linear_175_198)"/>
<path d="M824.033 443.539H826.278V444.392H820.46V443.539H823.056V434.493L820.582 436.055L820.155 435.33L823.209 433.334H824.033V443.539Z" fill="url(#paint58_linear_175_198)"/>
<path d="M824.033 461.935H826.278V462.788H820.46V461.935H823.056V452.889L820.582 454.45L820.155 453.726L823.209 451.73H824.033V461.935Z" fill="url(#paint59_linear_175_198)"/>
<path d="M851.478 267.614C852.567 267.614 853.392 268.102 853.952 269.079C854.522 270.045 854.807 271.45 854.807 273.296C854.807 275.142 854.522 276.553 853.952 277.529C853.392 278.506 852.567 278.994 851.478 278.994C850.399 278.994 849.574 278.506 849.004 277.529C848.434 276.553 848.149 275.142 848.149 273.296C848.149 271.461 848.434 270.055 849.004 269.079C849.574 268.102 850.399 267.614 851.478 267.614ZM849.233 273.296C849.233 274.605 849.345 275.63 849.569 276.37L852.959 269.24C852.603 268.735 852.109 268.483 851.478 268.483C850.775 268.483 850.226 268.88 849.829 269.674C849.431 270.458 849.233 271.665 849.233 273.296ZM851.478 278.109C852.19 278.109 852.745 277.717 853.142 276.934C853.539 276.14 853.738 274.927 853.738 273.296C853.738 271.912 853.611 270.839 853.356 270.077L849.966 277.272C850.332 277.83 850.836 278.109 851.478 278.109Z" fill="url(#paint60_linear_175_198)"/>
<path d="M852.394 296.375H854.639V297.228H848.821V296.375H851.417V287.329L848.943 288.891L848.515 288.166L851.569 286.171H852.394V296.375Z" fill="url(#paint61_linear_175_198)"/>
<path d="M851.478 304.405C852.567 304.405 853.392 304.893 853.952 305.87C854.522 306.836 854.807 308.241 854.807 310.087C854.807 311.933 854.522 313.344 853.952 314.32C853.392 315.297 852.567 315.785 851.478 315.785C850.399 315.785 849.574 315.297 849.004 314.32C848.434 313.344 848.149 311.933 848.149 310.087C848.149 308.252 848.434 306.846 849.004 305.87C849.574 304.893 850.399 304.405 851.478 304.405ZM849.233 310.087C849.233 311.396 849.345 312.421 849.569 313.161L852.959 306.031C852.603 305.526 852.109 305.274 851.478 305.274C850.775 305.274 850.226 305.671 849.829 306.465C849.431 307.249 849.233 308.456 849.233 310.087ZM851.478 314.9C852.19 314.9 852.745 314.508 853.142 313.725C853.539 312.931 853.738 311.718 853.738 310.087C853.738 308.703 853.611 307.63 853.356 306.868L849.966 314.063C850.332 314.621 850.836 314.9 851.478 314.9Z" fill="url(#paint62_linear_175_198)"/>
<path d="M851.478 322.801C852.567 322.801 853.392 323.289 853.952 324.265C854.522 325.231 854.807 326.637 854.807 328.482C854.807 330.328 854.522 331.739 853.952 332.716C853.392 333.692 852.567 334.18 851.478 334.18C850.399 334.18 849.574 333.692 849.004 332.716C848.434 331.739 848.149 330.328 848.149 328.482C848.149 326.647 848.434 325.242 849.004 324.265C849.574 323.289 850.399 322.801 851.478 322.801ZM849.233 328.482C849.233 329.792 849.345 330.816 849.569 331.557L852.959 324.426C852.603 323.922 852.109 323.67 851.478 323.67C850.775 323.67 850.226 324.067 849.829 324.861C849.431 325.644 849.233 326.851 849.233 328.482ZM851.478 333.295C852.19 333.295 852.745 332.903 853.142 332.12C853.539 331.326 853.738 330.113 853.738 328.482C853.738 327.098 853.611 326.025 853.356 325.263L849.966 332.458C850.332 333.016 850.836 333.295 851.478 333.295Z" fill="url(#paint63_linear_175_198)"/>
<path d="M852.394 351.562H854.639V352.415H848.821V351.562H851.417V342.516L848.943 344.077L848.515 343.353L851.569 341.357H852.394V351.562Z" fill="url(#paint64_linear_175_198)"/>
<path d="M851.478 359.591C852.567 359.591 853.392 360.08 853.952 361.056C854.522 362.022 854.807 363.428 854.807 365.273C854.807 367.119 854.522 368.53 853.952 369.507C853.392 370.483 852.567 370.971 851.478 370.971C850.399 370.971 849.574 370.483 849.004 369.507C848.434 368.53 848.149 367.119 848.149 365.273C848.149 363.438 848.434 362.033 849.004 361.056C849.574 360.08 850.399 359.591 851.478 359.591ZM849.233 365.273C849.233 366.583 849.345 367.607 849.569 368.348L852.959 361.217C852.603 360.713 852.109 360.461 851.478 360.461C850.775 360.461 850.226 360.858 849.829 361.652C849.431 362.435 849.233 363.642 849.233 365.273ZM851.478 370.086C852.19 370.086 852.745 369.694 853.142 368.911C853.539 368.117 853.738 366.904 853.738 365.273C853.738 363.889 853.611 362.816 853.356 362.054L849.966 369.249C850.332 369.807 850.836 370.086 851.478 370.086Z" fill="url(#paint65_linear_175_198)"/>
<path d="M852.394 388.353H854.639V389.206H848.821V388.353H851.417V379.307L848.943 380.868L848.515 380.144L851.569 378.148H852.394V388.353Z" fill="url(#paint66_linear_175_198)"/>
<path d="M851.478 396.382C852.567 396.382 853.392 396.871 853.952 397.847C854.522 398.813 854.807 400.219 854.807 402.064C854.807 403.91 854.522 405.321 853.952 406.298C853.392 407.274 852.567 407.762 851.478 407.762C850.399 407.762 849.574 407.274 849.004 406.298C848.434 405.321 848.149 403.91 848.149 402.064C848.149 400.229 848.434 398.824 849.004 397.847C849.574 396.871 850.399 396.382 851.478 396.382ZM849.233 402.064C849.233 403.373 849.345 404.398 849.569 405.139L852.959 398.008C852.603 397.504 852.109 397.252 851.478 397.252C850.775 397.252 850.226 397.649 849.829 398.443C849.431 399.226 849.233 400.433 849.233 402.064ZM851.478 406.877C852.19 406.877 852.745 406.485 853.142 405.702C853.539 404.908 853.738 403.695 853.738 402.064C853.738 400.68 853.611 399.607 853.356 398.845L849.966 406.04C850.332 406.598 850.836 406.877 851.478 406.877Z" fill="url(#paint67_linear_175_198)"/>
<path d="M851.478 414.778C852.567 414.778 853.392 415.266 853.952 416.243C854.522 417.208 854.807 418.614 854.807 420.46C854.807 422.305 854.522 423.717 853.952 424.693C853.392 425.67 852.567 426.158 851.478 426.158C850.399 426.158 849.574 425.67 849.004 424.693C848.434 423.717 848.149 422.305 848.149 420.46C848.149 418.625 848.434 417.219 849.004 416.243C849.574 415.266 850.399 414.778 851.478 414.778ZM849.233 420.46C849.233 421.769 849.345 422.794 849.569 423.534L852.959 416.404C852.603 415.899 852.109 415.647 851.478 415.647C850.775 415.647 850.226 416.044 849.829 416.838C849.431 417.622 849.233 418.829 849.233 420.46ZM851.478 425.273C852.19 425.273 852.745 424.881 853.142 424.098C853.539 423.303 853.738 422.091 853.738 420.46C853.738 419.076 853.611 418.002 853.356 417.241L849.966 424.436C850.332 424.994 850.836 425.273 851.478 425.273Z" fill="url(#paint68_linear_175_198)"/>
<path d="M852.394 443.539H854.639V444.392H848.821V443.539H851.417V434.493L848.943 436.055L848.515 435.33L851.569 433.334H852.394V443.539Z" fill="url(#paint69_linear_175_198)"/>
<path d="M851.478 451.569C852.567 451.569 853.392 452.057 853.952 453.034C854.522 453.999 854.807 455.405 854.807 457.251C854.807 459.096 854.522 460.508 853.952 461.484C853.392 462.46 852.567 462.949 851.478 462.949C850.399 462.949 849.574 462.46 849.004 461.484C848.434 460.508 848.149 459.096 848.149 457.251C848.149 455.416 848.434 454.01 849.004 453.034C849.574 452.057 850.399 451.569 851.478 451.569ZM849.233 457.251C849.233 458.56 849.345 459.585 849.569 460.325L852.959 453.195C852.603 452.69 852.109 452.438 851.478 452.438C850.775 452.438 850.226 452.835 849.829 453.629C849.431 454.412 849.233 455.62 849.233 457.251ZM851.478 462.063C852.19 462.063 852.745 461.672 853.142 460.888C853.539 460.094 853.738 458.882 853.738 457.251C853.738 455.866 853.611 454.793 853.356 454.032L849.966 461.226C850.332 461.784 850.836 462.063 851.478 462.063Z" fill="url(#paint70_linear_175_198)"/>
<path d="M852.394 480.33H854.639V481.183H848.821V480.33H851.417V471.284L848.943 472.846L848.515 472.121L851.569 470.125H852.394V480.33Z" fill="url(#paint71_linear_175_198)"/>
<path d="M852.394 498.726H854.639V499.579H848.821V498.726H851.417V489.68L848.943 491.241L848.515 490.517L851.569 488.521H852.394V498.726Z" fill="url(#paint72_linear_175_198)"/>
<path d="M808.937 286.01C810.026 286.01 810.851 286.498 811.411 287.474C811.981 288.44 812.266 289.846 812.266 291.691C812.266 293.537 811.981 294.948 811.411 295.925C810.851 296.901 810.026 297.389 808.937 297.389C807.858 297.389 807.033 296.901 806.463 295.925C805.893 294.948 805.608 293.537 805.608 291.691C805.608 289.857 805.893 288.451 806.463 287.474C807.033 286.498 807.858 286.01 808.937 286.01ZM806.692 291.691C806.692 293.001 806.804 294.025 807.028 294.766L810.418 287.635C810.062 287.131 809.568 286.879 808.937 286.879C808.234 286.879 807.685 287.276 807.287 288.07C806.89 288.853 806.692 290.06 806.692 291.691ZM808.937 296.504C809.649 296.504 810.204 296.112 810.601 295.329C810.998 294.535 811.197 293.323 811.197 291.691C811.197 290.307 811.07 289.234 810.815 288.472L807.425 295.667C807.791 296.225 808.295 296.504 808.937 296.504Z" fill="url(#paint73_linear_175_198)"/>
<path d="M808.937 304.405C810.026 304.405 810.851 304.893 811.411 305.87C811.981 306.836 812.266 308.241 812.266 310.087C812.266 311.933 811.981 313.344 811.411 314.32C810.851 315.297 810.026 315.785 808.937 315.785C807.858 315.785 807.033 315.297 806.463 314.32C805.893 313.344 805.608 311.933 805.608 310.087C805.608 308.252 805.893 306.846 806.463 305.87C807.033 304.893 807.858 304.405 808.937 304.405ZM806.692 310.087C806.692 311.396 806.804 312.421 807.028 313.161L810.418 306.031C810.062 305.526 809.568 305.274 808.937 305.274C808.234 305.274 807.685 305.671 807.287 306.465C806.89 307.249 806.692 308.456 806.692 310.087ZM808.937 314.9C809.649 314.9 810.204 314.508 810.601 313.725C810.998 312.931 811.197 311.718 811.197 310.087C811.197 308.703 811.07 307.63 810.815 306.868L807.425 314.063C807.791 314.621 808.295 314.9 808.937 314.9Z" fill="url(#paint74_linear_175_198)"/>
<path d="M809.853 333.166H812.098V334.019H806.28V333.166H808.876V324.12L806.402 325.682L805.974 324.957L809.028 322.961H809.853V333.166Z" fill="url(#paint75_linear_175_198)"/>
<path d="M808.937 341.196C810.026 341.196 810.851 341.684 811.411 342.661C811.981 343.626 812.266 345.032 812.266 346.878C812.266 348.724 811.981 350.135 811.411 351.111C810.851 352.088 810.026 352.576 808.937 352.576C807.858 352.576 807.033 352.088 806.463 351.111C805.893 350.135 805.608 348.724 805.608 346.878C805.608 345.043 805.893 343.637 806.463 342.661C807.033 341.684 807.858 341.196 808.937 341.196ZM806.692 346.878C806.692 348.187 806.804 349.212 807.028 349.952L810.418 342.822C810.062 342.317 809.568 342.065 808.937 342.065C808.234 342.065 807.685 342.462 807.287 343.256C806.89 344.04 806.692 345.247 806.692 346.878ZM808.937 351.691C809.649 351.691 810.204 351.299 810.601 350.516C810.998 349.722 811.197 348.509 811.197 346.878C811.197 345.494 811.07 344.421 810.815 343.659L807.425 350.854C807.791 351.412 808.295 351.691 808.937 351.691Z" fill="url(#paint76_linear_175_198)"/>
<path d="M809.853 369.957H812.098V370.81H806.28V369.957H808.876V360.911L806.402 362.473L805.974 361.748L809.028 359.752H809.853V369.957Z" fill="url(#paint77_linear_175_198)"/>
<path d="M809.853 388.353H812.098V389.206H806.28V388.353H808.876V379.307L806.402 380.868L805.974 380.144L809.028 378.148H809.853V388.353Z" fill="url(#paint78_linear_175_198)"/>
<path d="M838.214 259.584H840.459V260.438H834.64V259.584H837.236V250.538L834.762 252.1L834.335 251.375L837.389 249.38H838.214V259.584Z" fill="url(#paint79_linear_175_198)"/>
<path d="M837.297 267.614C838.387 267.614 839.211 268.102 839.771 269.079C840.342 270.045 840.627 271.45 840.627 273.296C840.627 275.142 840.342 276.553 839.771 277.529C839.211 278.506 838.387 278.994 837.297 278.994C836.218 278.994 835.394 278.506 834.824 277.529C834.253 276.553 833.968 275.142 833.968 273.296C833.968 271.461 834.253 270.055 834.824 269.079C835.394 268.102 836.218 267.614 837.297 267.614ZM835.053 273.296C835.053 274.605 835.165 275.63 835.389 276.37L838.779 269.24C838.422 268.735 837.929 268.483 837.297 268.483C836.595 268.483 836.045 268.88 835.648 269.674C835.251 270.458 835.053 271.665 835.053 273.296ZM837.297 278.109C838.01 278.109 838.565 277.717 838.962 276.934C839.359 276.14 839.558 274.927 839.558 273.296C839.558 271.912 839.43 270.839 839.176 270.077L835.786 277.272C836.152 277.83 836.656 278.109 837.297 278.109Z" fill="url(#paint80_linear_175_198)"/>
<path d="M838.214 296.375H840.459V297.228H834.64V296.375H837.236V287.329L834.762 288.891L834.335 288.166L837.389 286.171H838.214V296.375Z" fill="url(#paint81_linear_175_198)"/>
<path d="M838.214 314.771H840.459V315.624H834.64V314.771H837.236V305.725L834.762 307.286L834.335 306.562L837.389 304.566H838.214V314.771Z" fill="url(#paint82_linear_175_198)"/>
<path d="M837.297 322.801C838.387 322.801 839.211 323.289 839.771 324.265C840.342 325.231 840.627 326.637 840.627 328.482C840.627 330.328 840.342 331.739 839.771 332.716C839.211 333.692 838.387 334.18 837.297 334.18C836.218 334.18 835.394 333.692 834.824 332.716C834.253 331.739 833.968 330.328 833.968 328.482C833.968 326.647 834.253 325.242 834.824 324.265C835.394 323.289 836.218 322.801 837.297 322.801ZM835.053 328.482C835.053 329.792 835.165 330.816 835.389 331.557L838.779 324.426C838.422 323.922 837.929 323.67 837.297 323.67C836.595 323.67 836.045 324.067 835.648 324.861C835.251 325.644 835.053 326.851 835.053 328.482ZM837.297 333.295C838.01 333.295 838.565 332.903 838.962 332.12C839.359 331.326 839.558 330.113 839.558 328.482C839.558 327.098 839.43 326.025 839.176 325.263L835.786 332.458C836.152 333.016 836.656 333.295 837.297 333.295Z" fill="url(#paint83_linear_175_198)"/>
<path d="M838.214 351.562H840.459V352.415H834.64V351.562H837.236V342.516L834.762 344.077L834.335 343.353L837.389 341.357H838.214V351.562Z" fill="url(#paint84_linear_175_198)"/>
<path d="M838.214 369.957H840.459V370.81H834.64V369.957H837.236V360.911L834.762 362.473L834.335 361.748L837.389 359.752H838.214V369.957Z" fill="url(#paint85_linear_175_198)"/>
<path d="M837.297 377.987C838.387 377.987 839.211 378.475 839.771 379.452C840.342 380.417 840.627 381.823 840.627 383.669C840.627 385.515 840.342 386.926 839.771 387.902C839.211 388.879 838.387 389.367 837.297 389.367C836.218 389.367 835.394 388.879 834.824 387.902C834.253 386.926 833.968 385.515 833.968 383.669C833.968 381.834 834.253 380.428 834.824 379.452C835.394 378.475 836.218 377.987 837.297 377.987ZM835.053 383.669C835.053 384.978 835.165 386.003 835.389 386.743L838.779 379.613C838.422 379.108 837.929 378.856 837.297 378.856C836.595 378.856 836.045 379.253 835.648 380.047C835.251 380.831 835.053 382.038 835.053 383.669ZM837.297 388.482C838.01 388.482 838.565 388.09 838.962 387.307C839.359 386.512 839.558 385.3 839.558 383.669C839.558 382.285 839.43 381.212 839.176 380.45L835.786 387.645C836.152 388.203 836.656 388.482 837.297 388.482Z" fill="url(#paint86_linear_175_198)"/>
<path d="M838.214 406.748H840.459V407.601H834.64V406.748H837.236V397.702L834.762 399.264L834.335 398.539L837.389 396.543H838.214V406.748Z" fill="url(#paint87_linear_175_198)"/>
<path d="M837.297 414.778C838.387 414.778 839.211 415.266 839.771 416.243C840.342 417.208 840.627 418.614 840.627 420.46C840.627 422.305 840.342 423.717 839.771 424.693C839.211 425.67 838.387 426.158 837.297 426.158C836.218 426.158 835.394 425.67 834.824 424.693C834.253 423.717 833.968 422.305 833.968 420.46C833.968 418.625 834.253 417.219 834.824 416.243C835.394 415.266 836.218 414.778 837.297 414.778ZM835.053 420.46C835.053 421.769 835.165 422.794 835.389 423.534L838.779 416.404C838.422 415.899 837.929 415.647 837.297 415.647C836.595 415.647 836.045 416.044 835.648 416.838C835.251 417.622 835.053 418.829 835.053 420.46ZM837.297 425.273C838.01 425.273 838.565 424.881 838.962 424.098C839.359 423.303 839.558 422.091 839.558 420.46C839.558 419.076 839.43 418.002 839.176 417.241L835.786 424.436C836.152 424.994 836.656 425.273 837.297 425.273Z" fill="url(#paint88_linear_175_198)"/>
<path d="M865.658 249.219C866.747 249.219 867.572 249.707 868.132 250.683C868.702 251.649 868.987 253.055 868.987 254.9C868.987 256.746 868.702 258.157 868.132 259.134C867.572 260.11 866.747 260.598 865.658 260.598C864.579 260.598 863.754 260.11 863.184 259.134C862.614 258.157 862.329 256.746 862.329 254.9C862.329 253.066 862.614 251.66 863.184 250.683C863.754 249.707 864.579 249.219 865.658 249.219ZM863.413 254.9C863.413 256.21 863.525 257.234 863.749 257.975L867.139 250.844C866.783 250.34 866.289 250.088 865.658 250.088C864.956 250.088 864.406 250.485 864.009 251.279C863.612 252.062 863.413 253.269 863.413 254.9ZM865.658 259.713C866.371 259.713 866.926 259.322 867.323 258.538C867.72 257.744 867.918 256.532 867.918 254.9C867.918 253.516 867.791 252.443 867.536 251.681L864.146 258.876C864.513 259.434 865.017 259.713 865.658 259.713Z" fill="url(#paint89_linear_175_198)"/>
<path d="M866.574 277.98H868.819V278.833H863.001V277.98H865.597V268.934L863.123 270.495L862.696 269.771L865.75 267.775H866.574V277.98Z" fill="url(#paint90_linear_175_198)"/>
<path d="M866.574 296.375H868.819V297.228H863.001V296.375H865.597V287.329L863.123 288.891L862.696 288.166L865.75 286.171H866.574V296.375Z" fill="url(#paint91_linear_175_198)"/>
<path d="M865.658 304.405C866.747 304.405 867.572 304.893 868.132 305.87C868.702 306.836 868.987 308.241 868.987 310.087C868.987 311.933 868.702 313.344 868.132 314.32C867.572 315.297 866.747 315.785 865.658 315.785C864.579 315.785 863.754 315.297 863.184 314.32C862.614 313.344 862.329 311.933 862.329 310.087C862.329 308.252 862.614 306.846 863.184 305.87C863.754 304.893 864.579 304.405 865.658 304.405ZM863.413 310.087C863.413 311.396 863.525 312.421 863.749 313.161L867.139 306.031C866.783 305.526 866.289 305.274 865.658 305.274C864.956 305.274 864.406 305.671 864.009 306.465C863.612 307.249 863.413 308.456 863.413 310.087ZM865.658 314.9C866.371 314.9 866.926 314.508 867.323 313.725C867.72 312.931 867.918 311.718 867.918 310.087C867.918 308.703 867.791 307.63 867.536 306.868L864.146 314.063C864.513 314.621 865.017 314.9 865.658 314.9Z" fill="url(#paint92_linear_175_198)"/>
<path d="M865.658 322.801C866.747 322.801 867.572 323.289 868.132 324.265C868.702 325.231 868.987 326.637 868.987 328.482C868.987 330.328 868.702 331.739 868.132 332.716C867.572 333.692 866.747 334.18 865.658 334.18C864.579 334.18 863.754 333.692 863.184 332.716C862.614 331.739 862.329 330.328 862.329 328.482C862.329 326.647 862.614 325.242 863.184 324.265C863.754 323.289 864.579 322.801 865.658 322.801ZM863.413 328.482C863.413 329.792 863.525 330.816 863.749 331.557L867.139 324.426C866.783 323.922 866.289 323.67 865.658 323.67C864.956 323.67 864.406 324.067 864.009 324.861C863.612 325.644 863.413 326.851 863.413 328.482ZM865.658 333.295C866.371 333.295 866.926 332.903 867.323 332.12C867.72 331.326 867.918 330.113 867.918 328.482C867.918 327.098 867.791 326.025 867.536 325.263L864.146 332.458C864.513 333.016 865.017 333.295 865.658 333.295Z" fill="url(#paint93_linear_175_198)"/>
</g>
<defs>
<filter id="filter0_f_175_198" x="-400.19" y="-400.19" width="1824.38" height="1365.33" filterUnits="userSpaceOnUse" color-interpolation-filters="sRGB">
<feFlood flood-opacity="0" result="BackgroundImageFix"/>
<feBlend mode="normal" in="SourceGraphic" in2="BackgroundImageFix" result="shape"/>
<feGaussianBlur stdDeviation="200.095" result="effect1_foregroundBlur_175_198"/>
</filter>
<linearGradient id="paint0_linear_175_198" x1="160.74" y1="472.945" x2="160.74" y2="724.253" gradientUnits="userSpaceOnUse">
<stop stop-color="#F7DD43"/>
<stop offset="1" stop-color="#F7DD43" stop-opacity="0"/>
</linearGradient>
<linearGradient id="paint1_linear_175_198" x1="160.74" y1="472.945" x2="160.74" y2="724.253" gradientUnits="userSpaceOnUse">
<stop stop-color="#F7DD43"/>
<stop offset="1" stop-color="#F7DD43" stop-opacity="0"/>
</linearGradient>
<linearGradient id="paint2_linear_175_198" x1="160.74" y1="472.945" x2="160.74" y2="724.253" gradientUnits="userSpaceOnUse">
<stop stop-color="#F7DD43"/>
<stop offset="1" stop-color="#F7DD43" stop-opacity="0"/>
</linearGradient>
<linearGradient id="paint3_linear_175_198" x1="160.74" y1="472.945" x2="160.74" y2="724.253" gradientUnits="userSpaceOnUse">
<stop stop-color="#F7DD43"/>
<stop offset="1" stop-color="#F7DD43" stop-opacity="0"/>
</linearGradient>
<linearGradient id="paint4_linear_175_198" x1="160.74" y1="472.945" x2="160.74" y2="724.253" gradientUnits="userSpaceOnUse">
<stop stop-color="#F7DD43"/>
<stop offset="1" stop-color="#F7DD43" stop-opacity="0"/>
</linearGradient>
<linearGradient id="paint5_linear_175_198" x1="160.74" y1="472.945" x2="160.74" y2="724.253" gradientUnits="userSpaceOnUse">
<stop stop-color="#F7DD43"/>
<stop offset="1" stop-color="#F7DD43" stop-opacity="0"/>
</linearGradient>
<linearGradient id="paint6_linear_175_198" x1="160.74" y1="472.945" x2="160.74" y2="724.253" gradientUnits="userSpaceOnUse">
<stop stop-color="#F7DD43"/>
<stop offset="1" stop-color="#F7DD43" stop-opacity="0"/>
</linearGradient>
<linearGradient id="paint7_linear_175_198" x1="160.74" y1="472.945" x2="160.74" y2="724.253" gradientUnits="userSpaceOnUse">
<stop stop-color="#F7DD43"/>
<stop offset="1" stop-color="#F7DD43" stop-opacity="0"/>
</linearGradient>
<linearGradient id="paint8_linear_175_198" x1="160.74" y1="472.945" x2="160.74" y2="724.253" gradientUnits="userSpaceOnUse">
<stop stop-color="#F7DD43"/>
<stop offset="1" stop-color="#F7DD43" stop-opacity="0"/>
</linearGradient>
<linearGradient id="paint9_linear_175_198" x1="160.74" y1="472.945" x2="160.74" y2="724.253" gradientUnits="userSpaceOnUse">
<stop stop-color="#F7DD43"/>
<stop offset="1" stop-color="#F7DD43" stop-opacity="0"/>
</linearGradient>
<linearGradient id="paint10_linear_175_198" x1="160.74" y1="472.945" x2="160.74" y2="724.253" gradientUnits="userSpaceOnUse">
<stop stop-color="#F7DD43"/>
<stop offset="1" stop-color="#F7DD43" stop-opacity="0"/>
</linearGradient>
<linearGradient id="paint11_linear_175_198" x1="160.74" y1="472.945" x2="160.74" y2="724.253" gradientUnits="userSpaceOnUse">
<stop stop-color="#F7DD43"/>
<stop offset="1" stop-color="#F7DD43" stop-opacity="0"/>
</linearGradient>
<linearGradient id="paint12_linear_175_198" x1="160.74" y1="472.945" x2="160.74" y2="724.253" gradientUnits="userSpaceOnUse">
<stop stop-color="#F7DD43"/>
<stop offset="1" stop-color="#F7DD43" stop-opacity="0"/>
</linearGradient>
<linearGradient id="paint13_linear_175_198" x1="160.74" y1="472.945" x2="160.74" y2="724.253" gradientUnits="userSpaceOnUse">
<stop stop-color="#F7DD43"/>
<stop offset="1" stop-color="#F7DD43" stop-opacity="0"/>
</linearGradient>
<linearGradient id="paint14_linear_175_198" x1="160.74" y1="472.945" x2="160.74" y2="724.253" gradientUnits="userSpaceOnUse">
<stop stop-color="#F7DD43"/>
<stop offset="1" stop-color="#F7DD43" stop-opacity="0"/>
</linearGradient>
<linearGradient id="paint15_linear_175_198" x1="160.74" y1="472.945" x2="160.74" y2="724.253" gradientUnits="userSpaceOnUse">
<stop stop-color="#F7DD43"/>
<stop offset="1" stop-color="#F7DD43" stop-opacity="0"/>
</linearGradient>
<linearGradient id="paint16_linear_175_198" x1="160.74" y1="472.945" x2="160.74" y2="724.253" gradientUnits="userSpaceOnUse">
<stop stop-color="#F7DD43"/>
<stop offset="1" stop-color="#F7DD43" stop-opacity="0"/>
</linearGradient>
<linearGradient id="paint17_linear_175_198" x1="160.74" y1="472.945" x2="160.74" y2="724.253" gradientUnits="userSpaceOnUse">
<stop stop-color="#F7DD43"/>
<stop offset="1" stop-color="#F7DD43" stop-opacity="0"/>
</linearGradient>
<linearGradient id="paint18_linear_175_198" x1="160.74" y1="472.945" x2="160.74" y2="724.253" gradientUnits="userSpaceOnUse">
<stop stop-color="#F7DD43"/>
<stop offset="1" stop-color="#F7DD43" stop-opacity="0"/>
</linearGradient>
<linearGradient id="paint19_linear_175_198" x1="160.74" y1="472.945" x2="160.74" y2="724.253" gradientUnits="userSpaceOnUse">
<stop stop-color="#F7DD43"/>
<stop offset="1" stop-color="#F7DD43" stop-opacity="0"/>
</linearGradient>
<linearGradient id="paint20_linear_175_198" x1="160.74" y1="472.945" x2="160.74" y2="724.253" gradientUnits="userSpaceOnUse">
<stop stop-color="#F7DD43"/>
<stop offset="1" stop-color="#F7DD43" stop-opacity="0"/>
</linearGradient>
<linearGradient id="paint21_linear_175_198" x1="160.74" y1="472.945" x2="160.74" y2="724.253" gradientUnits="userSpaceOnUse">
<stop stop-color="#F7DD43"/>
<stop offset="1" stop-color="#F7DD43" stop-opacity="0"/>
</linearGradient>
<linearGradient id="paint22_linear_175_198" x1="160.74" y1="472.945" x2="160.74" y2="724.253" gradientUnits="userSpaceOnUse">
<stop stop-color="#F7DD43"/>
<stop offset="1" stop-color="#F7DD43" stop-opacity="0"/>
</linearGradient>
<linearGradient id="paint23_linear_175_198" x1="160.74" y1="472.945" x2="160.74" y2="724.253" gradientUnits="userSpaceOnUse">
<stop stop-color="#F7DD43"/>
<stop offset="1" stop-color="#F7DD43" stop-opacity="0"/>
</linearGradient>
<linearGradient id="paint24_linear_175_198" x1="160.74" y1="472.945" x2="160.74" y2="724.253" gradientUnits="userSpaceOnUse">
<stop stop-color="#F7DD43"/>
<stop offset="1" stop-color="#F7DD43" stop-opacity="0"/>
</linearGradient>
<linearGradient id="paint25_linear_175_198" x1="160.74" y1="472.945" x2="160.74" y2="724.253" gradientUnits="userSpaceOnUse">
<stop stop-color="#F7DD43"/>
<stop offset="1" stop-color="#F7DD43" stop-opacity="0"/>
</linearGradient>
<linearGradient id="paint26_linear_175_198" x1="160.74" y1="472.945" x2="160.74" y2="724.253" gradientUnits="userSpaceOnUse">
<stop stop-color="#F7DD43"/>
<stop offset="1" stop-color="#F7DD43" stop-opacity="0"/>
</linearGradient>
<linearGradient id="paint27_linear_175_198" x1="160.74" y1="472.945" x2="160.74" y2="724.253" gradientUnits="userSpaceOnUse">
<stop stop-color="#F7DD43"/>
<stop offset="1" stop-color="#F7DD43" stop-opacity="0"/>
</linearGradient>
<linearGradient id="paint28_linear_175_198" x1="160.74" y1="472.945" x2="160.74" y2="724.253" gradientUnits="userSpaceOnUse">
<stop stop-color="#F7DD43"/>
<stop offset="1" stop-color="#F7DD43" stop-opacity="0"/>
</linearGradient>
<linearGradient id="paint29_linear_175_198" x1="160.74" y1="472.945" x2="160.74" y2="724.253" gradientUnits="userSpaceOnUse">
<stop stop-color="#F7DD43"/>
<stop offset="1" stop-color="#F7DD43" stop-opacity="0"/>
</linearGradient>
<linearGradient id="paint30_linear_175_198" x1="160.74" y1="472.945" x2="160.74" y2="724.253" gradientUnits="userSpaceOnUse">
<stop stop-color="#F7DD43"/>
<stop offset="1" stop-color="#F7DD43" stop-opacity="0"/>
</linearGradient>
<linearGradient id="paint31_linear_175_198" x1="160.74" y1="472.945" x2="160.74" y2="724.253" gradientUnits="userSpaceOnUse">
<stop stop-color="#F7DD43"/>
<stop offset="1" stop-color="#F7DD43" stop-opacity="0"/>
</linearGradient>
<linearGradient id="paint32_linear_175_198" x1="160.74" y1="472.945" x2="160.74" y2="724.253" gradientUnits="userSpaceOnUse">
<stop stop-color="#F7DD43"/>
<stop offset="1" stop-color="#F7DD43" stop-opacity="0"/>
</linearGradient>
<linearGradient id="paint33_linear_175_198" x1="160.74" y1="472.945" x2="160.74" y2="724.253" gradientUnits="userSpaceOnUse">
<stop stop-color="#F7DD43"/>
<stop offset="1" stop-color="#F7DD43" stop-opacity="0"/>
</linearGradient>
<linearGradient id="paint34_linear_175_198" x1="160.74" y1="472.945" x2="160.74" y2="724.253" gradientUnits="userSpaceOnUse">
<stop stop-color="#F7DD43"/>
<stop offset="1" stop-color="#F7DD43" stop-opacity="0"/>
</linearGradient>
<linearGradient id="paint35_linear_175_198" x1="160.74" y1="472.945" x2="160.74" y2="724.253" gradientUnits="userSpaceOnUse">
<stop stop-color="#F7DD43"/>
<stop offset="1" stop-color="#F7DD43" stop-opacity="0"/>
</linearGradient>
<linearGradient id="paint36_linear_175_198" x1="160.74" y1="472.945" x2="160.74" y2="724.253" gradientUnits="userSpaceOnUse">
<stop stop-color="#F7DD43"/>
<stop offset="1" stop-color="#F7DD43" stop-opacity="0"/>
</linearGradient>
<linearGradient id="paint37_linear_175_198" x1="160.74" y1="472.945" x2="160.74" y2="724.253" gradientUnits="userSpaceOnUse">
<stop stop-color="#F7DD43"/>
<stop offset="1" stop-color="#F7DD43" stop-opacity="0"/>
</linearGradient>
<linearGradient id="paint38_linear_175_198" x1="160.74" y1="472.945" x2="160.74" y2="724.253" gradientUnits="userSpaceOnUse">
<stop stop-color="#F7DD43"/>
<stop offset="1" stop-color="#F7DD43" stop-opacity="0"/>
</linearGradient>
<linearGradient id="paint39_linear_175_198" x1="160.74" y1="472.945" x2="160.74" y2="724.253" gradientUnits="userSpaceOnUse">
<stop stop-color="#F7DD43"/>
<stop offset="1" stop-color="#F7DD43" stop-opacity="0"/>
</linearGradient>
<linearGradient id="paint40_linear_175_198" x1="160.74" y1="472.945" x2="160.74" y2="724.253" gradientUnits="userSpaceOnUse">
<stop stop-color="#F7DD43"/>
<stop offset="1" stop-color="#F7DD43" stop-opacity="0"/>
</linearGradient>
<linearGradient id="paint41_linear_175_198" x1="160.74" y1="472.945" x2="160.74" y2="724.253" gradientUnits="userSpaceOnUse">
<stop stop-color="#F7DD43"/>
<stop offset="1" stop-color="#F7DD43" stop-opacity="0"/>
</linearGradient>
<linearGradient id="paint42_linear_175_198" x1="160.74" y1="472.945" x2="160.74" y2="724.253" gradientUnits="userSpaceOnUse">
<stop stop-color="#F7DD43"/>
<stop offset="1" stop-color="#F7DD43" stop-opacity="0"/>
</linearGradient>
<linearGradient id="paint43_linear_175_198" x1="160.74" y1="472.945" x2="160.74" y2="724.253" gradientUnits="userSpaceOnUse">
<stop stop-color="#F7DD43"/>
<stop offset="1" stop-color="#F7DD43" stop-opacity="0"/>
</linearGradient>
<linearGradient id="paint44_linear_175_198" x1="160.74" y1="472.945" x2="160.74" y2="724.253" gradientUnits="userSpaceOnUse">
<stop stop-color="#F7DD43"/>
<stop offset="1" stop-color="#F7DD43" stop-opacity="0"/>
</linearGradient>
<linearGradient id="paint45_linear_175_198" x1="160.74" y1="472.945" x2="160.74" y2="724.253" gradientUnits="userSpaceOnUse">
<stop stop-color="#F7DD43"/>
<stop offset="1" stop-color="#F7DD43" stop-opacity="0"/>
</linearGradient>
<linearGradient id="paint46_linear_175_198" x1="160.74" y1="472.945" x2="160.74" y2="724.253" gradientUnits="userSpaceOnUse">
<stop stop-color="#F7DD43"/>
<stop offset="1" stop-color="#F7DD43" stop-opacity="0"/>
</linearGradient>
<linearGradient id="paint47_linear_175_198" x1="837.297" y1="230.823" x2="837.297" y2="471.991" gradientUnits="userSpaceOnUse">
<stop stop-color="#F7DD43"/>
<stop offset="1" stop-color="#F7DD43" stop-opacity="0"/>
</linearGradient>
<linearGradient id="paint48_linear_175_198" x1="837.297" y1="230.823" x2="837.297" y2="471.991" gradientUnits="userSpaceOnUse">
<stop stop-color="#F7DD43"/>
<stop offset="1" stop-color="#F7DD43" stop-opacity="0"/>
</linearGradient>
<linearGradient id="paint49_linear_175_198" x1="837.297" y1="230.823" x2="837.297" y2="471.991" gradientUnits="userSpaceOnUse">
<stop stop-color="#F7DD43"/>
<stop offset="1" stop-color="#F7DD43" stop-opacity="0"/>
</linearGradient>
<linearGradient id="paint50_linear_175_198" x1="837.297" y1="230.823" x2="837.297" y2="471.991" gradientUnits="userSpaceOnUse">
<stop stop-color="#F7DD43"/>
<stop offset="1" stop-color="#F7DD43" stop-opacity="0"/>
</linearGradient>
<linearGradient id="paint51_linear_175_198" x1="837.297" y1="230.823" x2="837.297" y2="471.991" gradientUnits="userSpaceOnUse">
<stop stop-color="#F7DD43"/>
<stop offset="1" stop-color="#F7DD43" stop-opacity="0"/>
</linearGradient>
<linearGradient id="paint52_linear_175_198" x1="837.297" y1="230.823" x2="837.297" y2="471.991" gradientUnits="userSpaceOnUse">
<stop stop-color="#F7DD43"/>
<stop offset="1" stop-color="#F7DD43" stop-opacity="0"/>
</linearGradient>
<linearGradient id="paint53_linear_175_198" x1="837.297" y1="230.823" x2="837.297" y2="471.991" gradientUnits="userSpaceOnUse">
<stop stop-color="#F7DD43"/>
<stop offset="1" stop-color="#F7DD43" stop-opacity="0"/>
</linearGradient>
<linearGradient id="paint54_linear_175_198" x1="837.297" y1="230.823" x2="837.297" y2="471.991" gradientUnits="userSpaceOnUse">
<stop stop-color="#F7DD43"/>
<stop offset="1" stop-color="#F7DD43" stop-opacity="0"/>
</linearGradient>
<linearGradient id="paint55_linear_175_198" x1="837.297" y1="230.823" x2="837.297" y2="471.991" gradientUnits="userSpaceOnUse">
<stop stop-color="#F7DD43"/>
<stop offset="1" stop-color="#F7DD43" stop-opacity="0"/>
</linearGradient>
<linearGradient id="paint56_linear_175_198" x1="837.297" y1="230.823" x2="837.297" y2="471.991" gradientUnits="userSpaceOnUse">
<stop stop-color="#F7DD43"/>
<stop offset="1" stop-color="#F7DD43" stop-opacity="0"/>
</linearGradient>
<linearGradient id="paint57_linear_175_198" x1="837.297" y1="230.823" x2="837.297" y2="471.991" gradientUnits="userSpaceOnUse">
<stop stop-color="#F7DD43"/>
<stop offset="1" stop-color="#F7DD43" stop-opacity="0"/>
</linearGradient>
<linearGradient id="paint58_linear_175_198" x1="837.297" y1="230.823" x2="837.297" y2="471.991" gradientUnits="userSpaceOnUse">
<stop stop-color="#F7DD43"/>
<stop offset="1" stop-color="#F7DD43" stop-opacity="0"/>
</linearGradient>
<linearGradient id="paint59_linear_175_198" x1="837.297" y1="230.823" x2="837.297" y2="471.991" gradientUnits="userSpaceOnUse">
<stop stop-color="#F7DD43"/>
<stop offset="1" stop-color="#F7DD43" stop-opacity="0"/>
</linearGradient>
<linearGradient id="paint60_linear_175_198" x1="837.297" y1="230.823" x2="837.297" y2="471.991" gradientUnits="userSpaceOnUse">
<stop stop-color="#F7DD43"/>
<stop offset="1" stop-color="#F7DD43" stop-opacity="0"/>
</linearGradient>
<linearGradient id="paint61_linear_175_198" x1="837.297" y1="230.823" x2="837.297" y2="471.991" gradientUnits="userSpaceOnUse">
<stop stop-color="#F7DD43"/>
<stop offset="1" stop-color="#F7DD43" stop-opacity="0"/>
</linearGradient>
<linearGradient id="paint62_linear_175_198" x1="837.297" y1="230.823" x2="837.297" y2="471.991" gradientUnits="userSpaceOnUse">
<stop stop-color="#F7DD43"/>
<stop offset="1" stop-color="#F7DD43" stop-opacity="0"/>
</linearGradient>
<linearGradient id="paint63_linear_175_198" x1="837.297" y1="230.823" x2="837.297" y2="471.991" gradientUnits="userSpaceOnUse">
<stop stop-color="#F7DD43"/>
<stop offset="1" stop-color="#F7DD43" stop-opacity="0"/>
</linearGradient>
<linearGradient id="paint64_linear_175_198" x1="837.297" y1="230.823" x2="837.297" y2="471.991" gradientUnits="userSpaceOnUse">
<stop stop-color="#F7DD43"/>
<stop offset="1" stop-color="#F7DD43" stop-opacity="0"/>
</linearGradient>
<linearGradient id="paint65_linear_175_198" x1="837.297" y1="230.823" x2="837.297" y2="471.991" gradientUnits="userSpaceOnUse">
<stop stop-color="#F7DD43"/>
<stop offset="1" stop-color="#F7DD43" stop-opacity="0"/>
</linearGradient>
<linearGradient id="paint66_linear_175_198" x1="837.297" y1="230.823" x2="837.297" y2="471.991" gradientUnits="userSpaceOnUse">
<stop stop-color="#F7DD43"/>
<stop offset="1" stop-color="#F7DD43" stop-opacity="0"/>
</linearGradient>
<linearGradient id="paint67_linear_175_198" x1="837.297" y1="230.823" x2="837.297" y2="471.991" gradientUnits="userSpaceOnUse">
<stop stop-color="#F7DD43"/>
<stop offset="1" stop-color="#F7DD43" stop-opacity="0"/>
</linearGradient>
<linearGradient id="paint68_linear_175_198" x1="837.297" y1="230.823" x2="837.297" y2="471.991" gradientUnits="userSpaceOnUse">
<stop stop-color="#F7DD43"/>
<stop offset="1" stop-color="#F7DD43" stop-opacity="0"/>
</linearGradient>
<linearGradient id="paint69_linear_175_198" x1="837.297" y1="230.823" x2="837.297" y2="471.991" gradientUnits="userSpaceOnUse">
<stop stop-color="#F7DD43"/>
<stop offset="1" stop-color="#F7DD43" stop-opacity="0"/>
</linearGradient>
<linearGradient id="paint70_linear_175_198" x1="837.297" y1="230.823" x2="837.297" y2="471.991" gradientUnits="userSpaceOnUse">
<stop stop-color="#F7DD43"/>
<stop offset="1" stop-color="#F7DD43" stop-opacity="0"/>
</linearGradient>
<linearGradient id="paint71_linear_175_198" x1="837.297" y1="230.823" x2="837.297" y2="471.991" gradientUnits="userSpaceOnUse">
<stop stop-color="#F7DD43"/>
<stop offset="1" stop-color="#F7DD43" stop-opacity="0"/>
</linearGradient>
<linearGradient id="paint72_linear_175_198" x1="837.297" y1="230.823" x2="837.297" y2="471.991" gradientUnits="userSpaceOnUse">
<stop stop-color="#F7DD43"/>
<stop offset="1" stop-color="#F7DD43" stop-opacity="0"/>
</linearGradient>
<linearGradient id="paint73_linear_175_198" x1="837.297" y1="230.823" x2="837.297" y2="471.991" gradientUnits="userSpaceOnUse">
<stop stop-color="#F7DD43"/>
<stop offset="1" stop-color="#F7DD43" stop-opacity="0"/>
</linearGradient>
<linearGradient id="paint74_linear_175_198" x1="837.297" y1="230.823" x2="837.297" y2="471.991" gradientUnits="userSpaceOnUse">
<stop stop-color="#F7DD43"/>
<stop offset="1" stop-color="#F7DD43" stop-opacity="0"/>
</linearGradient>
<linearGradient id="paint75_linear_175_198" x1="837.297" y1="230.823" x2="837.297" y2="471.991" gradientUnits="userSpaceOnUse">
<stop stop-color="#F7DD43"/>
<stop offset="1" stop-color="#F7DD43" stop-opacity="0"/>
</linearGradient>
<linearGradient id="paint76_linear_175_198" x1="837.297" y1="230.823" x2="837.297" y2="471.991" gradientUnits="userSpaceOnUse">
<stop stop-color="#F7DD43"/>
<stop offset="1" stop-color="#F7DD43" stop-opacity="0"/>
</linearGradient>
<linearGradient id="paint77_linear_175_198" x1="837.297" y1="230.823" x2="837.297" y2="471.991" gradientUnits="userSpaceOnUse">
<stop stop-color="#F7DD43"/>
<stop offset="1" stop-color="#F7DD43" stop-opacity="0"/>
</linearGradient>
<linearGradient id="paint78_linear_175_198" x1="837.297" y1="230.823" x2="837.297" y2="471.991" gradientUnits="userSpaceOnUse">
<stop stop-color="#F7DD43"/>
<stop offset="1" stop-color="#F7DD43" stop-opacity="0"/>
</linearGradient>
<linearGradient id="paint79_linear_175_198" x1="837.297" y1="230.823" x2="837.297" y2="471.991" gradientUnits="userSpaceOnUse">
<stop stop-color="#F7DD43"/>
<stop offset="1" stop-color="#F7DD43" stop-opacity="0"/>
</linearGradient>
<linearGradient id="paint80_linear_175_198" x1="837.297" y1="230.823" x2="837.297" y2="471.991" gradientUnits="userSpaceOnUse">
<stop stop-color="#F7DD43"/>
<stop offset="1" stop-color="#F7DD43" stop-opacity="0"/>
</linearGradient>
<linearGradient id="paint81_linear_175_198" x1="837.297" y1="230.823" x2="837.297" y2="471.991" gradientUnits="userSpaceOnUse">
<stop stop-color="#F7DD43"/>
<stop offset="1" stop-color="#F7DD43" stop-opacity="0"/>
</linearGradient>
<linearGradient id="paint82_linear_175_198" x1="837.297" y1="230.823" x2="837.297" y2="471.991" gradientUnits="userSpaceOnUse">
<stop stop-color="#F7DD43"/>
<stop offset="1" stop-color="#F7DD43" stop-opacity="0"/>
</linearGradient>
<linearGradient id="paint83_linear_175_198" x1="837.297" y1="230.823" x2="837.297" y2="471.991" gradientUnits="userSpaceOnUse">
<stop stop-color="#F7DD43"/>
<stop offset="1" stop-color="#F7DD43" stop-opacity="0"/>
</linearGradient>
<linearGradient id="paint84_linear_175_198" x1="837.297" y1="230.823" x2="837.297" y2="471.991" gradientUnits="userSpaceOnUse">
<stop stop-color="#F7DD43"/>
<stop offset="1" stop-color="#F7DD43" stop-opacity="0"/>
</linearGradient>
<linearGradient id="paint85_linear_175_198" x1="837.297" y1="230.823" x2="837.297" y2="471.991" gradientUnits="userSpaceOnUse">
<stop stop-color="#F7DD43"/>
<stop offset="1" stop-color="#F7DD43" stop-opacity="0"/>
</linearGradient>
<linearGradient id="paint86_linear_175_198" x1="837.297" y1="230.823" x2="837.297" y2="471.991" gradientUnits="userSpaceOnUse">
<stop stop-color="#F7DD43"/>
<stop offset="1" stop-color="#F7DD43" stop-opacity="0"/>
</linearGradient>
<linearGradient id="paint87_linear_175_198" x1="837.297" y1="230.823" x2="837.297" y2="471.991" gradientUnits="userSpaceOnUse">
<stop stop-color="#F7DD43"/>
<stop offset="1" stop-color="#F7DD43" stop-opacity="0"/>
</linearGradient>
<linearGradient id="paint88_linear_175_198" x1="837.297" y1="230.823" x2="837.297" y2="471.991" gradientUnits="userSpaceOnUse">
<stop stop-color="#F7DD43"/>
<stop offset="1" stop-color="#F7DD43" stop-opacity="0"/>
</linearGradient>
<linearGradient id="paint89_linear_175_198" x1="837.297" y1="230.823" x2="837.297" y2="471.991" gradientUnits="userSpaceOnUse">
<stop stop-color="#F7DD43"/>
<stop offset="1" stop-color="#F7DD43" stop-opacity="0"/>
</linearGradient>
<linearGradient id="paint90_linear_175_198" x1="837.297" y1="230.823" x2="837.297" y2="471.991" gradientUnits="userSpaceOnUse">
<stop stop-color="#F7DD43"/>
<stop offset="1" stop-color="#F7DD43" stop-opacity="0"/>
</linearGradient>
<linearGradient id="paint91_linear_175_198" x1="837.297" y1="230.823" x2="837.297" y2="471.991" gradientUnits="userSpaceOnUse">
<stop stop-color="#F7DD43"/>
<stop offset="1" stop-color="#F7DD43" stop-opacity="0"/>
</linearGradient>
<linearGradient id="paint92_linear_175_198" x1="837.297" y1="230.823" x2="837.297" y2="471.991" gradientUnits="userSpaceOnUse">
<stop stop-color="#F7DD43"/>
<stop offset="1" stop-color="#F7DD43" stop-opacity="0"/>
</linearGradient>
<linearGradient id="paint93_linear_175_198" x1="837.297" y1="230.823" x2="837.297" y2="471.991" gradientUnits="userSpaceOnUse">
<stop stop-color="#F7DD43"/>
<stop offset="1" stop-color="#F7DD43" stop-opacity="0"/>
</linearGradient>
</defs>
</svg>
